<svg xmlns="http://www.w3.org/2000/svg" viewBox="0 0 113.39 37.12"><defs><style>.cls-1{fill:#c3002f;}.cls-2{fill:#8e9090;}</style></defs><title>hae-logo</title><g id="Layer_2" data-name="Layer 2"><g id="Ebene_1" data-name="Ebene 1"><polygon class="cls-1" points="31.2 31.2 25.27 31.19 20.62 26.53 15.93 31.19 10.03 31.19 20.62 20.61 31.2 31.2"/><polygon class="cls-2" points="47.08 31.19 47.08 5.93 51.62 5.93 51.62 17.11 63.4 17.11 63.4 5.93 67.94 5.93 67.94 31.19 63.4 31.19 63.4 20.45 51.62 20.45 51.62 31.19 47.08 31.19"/><path class="cls-2" d="M70.87,31.19,80.81,5.93h4.66l9.88,25.26H90.63l-2.19-6H77.78l-2.21,6Zm8-9.29h8.54L83.14,9.65Z"/><path class="cls-2" d="M98.27,31.19V5.93h14.87V9.27H102.81v7.88h9.78v3.26h-9.78v7.46h10.57v3.33Z"/><polygon class="cls-1" points="10.04 5.93 15.97 5.94 20.63 10.6 25.31 5.93 31.21 5.93 20.63 16.52 10.04 5.93"/><polygon class="cls-1" points="41.25 0 41.24 5.93 28.6 18.56 33.27 23.25 33.27 29.15 22.68 18.56 41.25 0"/><polygon class="cls-1" points="0 37.12 0 31.19 12.64 18.56 7.98 13.87 7.98 7.97 18.57 18.56 0 37.12"/></g></g></svg>